# xmcd
#
# Track frame offsets: 
#        182
#        18180
#        35985
#        48707
#        62970
#        78645
#        95710
#        105637
#        125595
#        137775
#        158672
#        178100
#        191792
#        209142
#        229122
#        243510
#        261357
#        276925
#        293135
#        306205
#        319802
#
# Disc length: 4460 seconds
#
# Revision: 3
# Processed by: cddbd v1.5.2PL0 Copyright (c) Steve Scherf et al.
# Submitted via: ExactAudioCopy v0.95b3
#
DISCID=4e116a15
DTITLE=Ronstadt, Linda - Box Set: Album Retrospective (2)
DYEAR=1900
DGENRE=Rock
TTITLE0=Blue Bayou
TTITLE1=Try Me Again
TTITLE2=Heat Wave
TTITLE3=Heart Like A Wheel
TTITLE4=It Doesn't Matter Anymore
TTITLE5=You're No Good
TTITLE6=When Will I Be Loved
TTITLE7=Long Long Time
TTITLE8=Different Drum
TTITLE9=Little Girl Blue
TTITLE10=I Get Along Without You Very Well
TTITLE11=My Funny Valentine
TTITLE12=When You Wish Upon A Star
TTITLE13=It Never Entered My Mind
TTITLE14=Skylark
TTITLE15=What's New
TTITLE16=Quiereme Mucho
TTITLE17=Frenesi
TTITLE18=Mentira Salome
TTITLE19=La Mariquita
TTITLE20=El Crucifijo de Piedra
EXTD=
EXTT0=
EXTT1=
EXTT2=
EXTT3=
EXTT4=
EXTT5=
EXTT6=
EXTT7=
EXTT8=
EXTT9=
EXTT10=
EXTT11=
EXTT12=
EXTT13=
EXTT14=
EXTT15=
EXTT16=
EXTT17=
EXTT18=
EXTT19=
EXTT20=
PLAYORDER=
